<svg aria-hidden="true" style="position: absolute; width: 0; height: 0; overflow: hidden;" version="1.1"
  xmlns="http://www.w3.org/2000/svg" xmlns:xlink="http://www.w3.org/1999/xlink">
  <defs>
    <symbol id="icon-currency" viewBox="0 0 18 32">
      <path
        d="M9.487 13.676c-3.93-1.021-5.193-2.077-5.193-3.722 0-1.887 1.748-3.203 4.674-3.203 3.081 0 4.224 1.472 4.328 3.635h3.826c-0.121-2.978-1.939-5.713-5.557-6.596v-3.791h-5.193v3.739c-3.358 0.727-6.059 2.908-6.059 6.249 0 3.999 3.307 5.99 8.136 7.15 4.328 1.039 5.193 2.562 5.193 4.172 0 1.194-0.848 3.099-4.674 3.099-3.566 0-4.968-1.593-5.159-3.635h-3.809c0.208 3.791 3.047 5.921 6.371 6.63v3.757h5.193v-3.722c3.376-0.641 6.059-2.597 6.059-6.146 0-4.916-4.207-6.596-8.136-7.617z">
      </path>
    </symbol>
    <symbol id="icon-statistics" viewBox="0 0 55 32">
      <path
        d="M54.756 5.215c0 2.868-2.24 5.215-4.978 5.215-0.448 0-0.871-0.052-1.269-0.183l-8.86 9.256c0.124 0.417 0.174 0.887 0.174 1.356 0 2.868-2.24 5.215-4.978 5.215s-4.978-2.347-4.978-5.215c0-0.469 0.050-0.939 0.174-1.356l-6.347-6.649c-0.398 0.13-0.846 0.182-1.294 0.182s-0.896-0.052-1.294-0.182l-11.324 11.89c0.124 0.417 0.174 0.86 0.174 1.33 0 2.868-2.24 5.215-4.978 5.215s-4.978-2.347-4.978-5.215c0-2.868 2.24-5.215 4.978-5.215 0.448 0 0.871 0.052 1.269 0.183l11.349-11.864c-0.124-0.417-0.174-0.886-0.174-1.356 0-2.868 2.24-5.215 4.978-5.215s4.978 2.347 4.978 5.215c0 0.469-0.050 0.939-0.174 1.356l6.347 6.649c0.398-0.13 0.846-0.183 1.294-0.183s0.896 0.052 1.294 0.183l8.836-9.282c-0.125-0.417-0.174-0.86-0.174-1.33 0-2.868 2.24-5.215 4.978-5.215s4.978 2.347 4.978 5.215z">
      </path>
    </symbol>
    <symbol id="icon-home" viewBox="0 0 37 32">
      <path
        d="M14.578 30.963v-10.928h7.289v10.928h9.111v-14.571h5.467l-18.222-16.392-18.222 16.392h5.467v14.571h9.111z">
      </path>
    </symbol>
    <symbol id="icon-exit" viewBox="0 0 32 32">
      <path fill="#fff" style="fill: var(--color1, #fff)" opacity="0.6"
        d="M20.051 23.237h2.499v4.997c0 2.067-1.681 3.748-3.748 3.748h-15.054c-2.066 0-3.748-1.681-3.748-3.748v-24.486c0-2.066 1.681-3.748 3.748-3.748h15.054c2.067 0 3.748 1.681 3.748 3.748v4.997h-2.499v-4.997c0-0.689-0.56-1.249-1.249-1.249h-15.054c-0.689 0-1.249 0.561-1.249 1.249v24.486c0 0.689 0.561 1.249 1.249 1.249h15.054c0.689 0 1.249-0.561 1.249-1.249v-4.997zM26.111 10.102l-1.767 1.767 2.873 2.874h-16.161v2.499h16.161l-2.873 2.873 1.767 1.767 5.889-5.889-5.889-5.89z">
      </path>
    </symbol>
    <symbol id="icon-logo" viewBox="0 0 32 32">
      <path fill="#ffc727" style="fill: var(--color2, #ffc727)"
        d="M22.25 4.181c-2.153-0.538-4.307-1.615-5.922-3.23-1.615 1.615-3.769 2.692-5.922 3.23 0.538 4.845 2.154 8.076 5.922 10.768 3.769-2.692 5.922-5.922 5.922-10.768z">
      </path>
      <path fill="#fbfbfb" style="fill: var(--color3, #fbfbfb)"
        d="M20.097 24.227l-15.075-17.766v8.614l11.844 13.459 3.23-4.307z"></path>
      <path fill="#fbfbfb" style="fill: var(--color3, #fbfbfb)"
        d="M21.712 22.612l6.461-7.537v-8.076l-10.229 11.844 3.769 3.769z"></path>
      <path fill="#fbfbfb" style="fill: var(--color3, #fbfbfb)"
        d="M22.25 25.304v4.845l5.922-6.999v-4.846l-5.922 6.999z"></path>
      <path fill="#fbfbfb" style="fill: var(--color3, #fbfbfb)"
        d="M10.944 25.304l-5.922-6.999v4.846l5.922 6.999v-4.845z"></path>
    </symbol>
  </defs>
</svg>